<svg width="80" height="81" viewBox="0 0 80 81" fill="none" xmlns="http://www.w3.org/2000/svg">
<rect x="8.09773" y="65.6924" width="79.8232" height="8.13335" transform="rotate(-45 8.09773 65.6924)" fill="#B40A09" stroke="#B40A09"/>
<rect x="13.3086" y="9.09773" width="79.8232" height="8.13335" transform="rotate(45 13.3086 9.09773)" fill="#B40A09" stroke="#B40A09"/>
<rect x="0.707107" y="21.9492" width="29.5313" height="8.13335" transform="rotate(-45 0.707107 21.9492)" fill="#B40A09" stroke="#B40A09"/>
<rect x="51.7071" y="73.5889" width="29.5313" height="8.13335" transform="rotate(-45 51.7071 73.5889)" fill="#B40A09" stroke="#B40A09"/>
<rect x="57.459" y="0.707107" width="29.5313" height="8.13335" transform="rotate(45 57.459 0.707107)" fill="#B40A09" stroke="#B40A09"/>
<rect x="6.45898" y="52.7071" width="29.5313" height="8.13335" transform="rotate(45 6.45898 52.7071)" fill="#B40A09" stroke="#B40A09"/>
<rect x="9.45898" y="33.7071" width="15.163" height="3.99152" transform="rotate(45 9.45898 33.7071)" fill="#B40A09" stroke="#B40A09"/>
<rect x="6.63679" y="44.4287" width="15.163" height="3.99152" transform="rotate(-45 6.63679 44.4287)" fill="#B40A09" stroke="#B40A09"/>
<rect x="61.5293" y="33.7071" width="15.163" height="3.99152" transform="rotate(45 61.5293 33.7071)" fill="#B40A09" stroke="#B40A09"/>
<rect x="58.7071" y="44.4287" width="15.163" height="3.99152" transform="rotate(-45 58.7071 44.4287)" fill="#B40A09" stroke="#B40A09"/>
</svg>
